<svg width="891" height="532" viewBox="0 0 891 532" fill="none" xmlns="http://www.w3.org/2000/svg">
<path d="M63.4462 260.158L65.2114 250.503L40.9141 246.061L39.149 255.716L34.801 254.921L37.5014 240.15L45.8136 241.67L45.872 241.35C43.3965 240.193 41.6055 238.544 40.4991 236.403C39.3579 234.213 39.0561 231.646 39.5938 228.705L40.4355 224.101L45.5507 225.037L44.4168 231.239C43.8791 234.18 44.2952 236.723 45.6652 238.868C47.0429 240.97 49.1172 242.274 51.8879 242.781L66.1466 245.387L68.4845 232.599L72.8325 233.394L67.7942 260.953L63.4462 260.158ZM84.224 210.514C83.0552 212.64 81.6404 214.36 79.9796 215.672C78.3397 216.946 76.5212 217.826 74.5242 218.311C72.51 218.736 70.3952 218.761 68.1795 218.384C65.9259 217.986 63.6409 217.15 61.3244 215.877C58.9699 214.583 57.0207 213.091 55.4767 211.402C53.9536 209.675 52.851 207.857 52.1689 205.95C51.4488 204.021 51.1768 202.042 51.3527 200.012C51.5495 197.945 52.2011 195.905 53.3073 193.892C54.3926 191.917 55.7344 190.331 57.3325 189.132C58.9515 187.896 60.7197 187.063 62.637 186.633C64.5164 186.183 66.4965 186.134 68.5773 186.486C70.6581 186.839 72.7429 187.589 74.8315 188.737L76.9961 189.927L65.0365 211.687L66.4037 212.438C67.6948 213.148 69.0058 213.596 70.3367 213.784C71.6676 213.971 72.9405 213.905 74.1554 213.583C75.3912 213.224 76.5396 212.619 77.6006 211.768C78.6445 210.859 79.5421 209.72 80.2935 208.353C81.3789 206.379 81.8624 204.419 81.7441 202.475C81.6258 200.531 80.9779 198.741 79.8004 197.105L83.9261 194.996C85.4208 196.955 86.2501 199.315 86.4142 202.075C86.5612 204.777 85.8311 207.589 84.224 210.514ZM57.0668 195.958C56.3781 197.212 55.9693 198.495 55.8406 199.809C55.7119 201.123 55.8272 202.397 56.1863 203.633C56.5664 204.831 57.1818 205.96 58.0327 207.021C58.8664 208.024 59.9288 208.879 61.22 209.589L61.6187 209.808L70.8859 192.947L70.2593 192.603C68.9681 191.893 67.6761 191.455 66.3831 191.288C65.1111 191.084 63.8971 191.133 62.741 191.437C61.5678 191.683 60.4906 192.203 59.5093 192.999C58.5489 193.757 57.7348 194.743 57.0668 195.958ZM92.9855 186.739L100.657 178.429L82.5069 161.675L74.3948 170.464L71.1469 167.466L79.2591 158.677L74.1962 154.004C72.5405 152.476 71.584 150.797 71.3268 148.967C71.099 147.105 71.8521 145.235 73.5862 143.357L81.2134 135.094L84.4613 138.092L75.3351 147.979L82.7861 154.856L91.9123 144.969L95.1601 147.967L86.034 157.854L104.184 174.608L112.296 165.819L115.544 168.817L96.2333 189.737L92.9855 186.739ZM120.419 158.446L129.724 151.354L105.924 120.13L96.6193 127.222L93.9399 123.707L107.381 113.462L133.859 148.201L143.165 141.109L145.844 144.624L123.098 161.961L120.419 158.446ZM167.734 132.182C165.629 133.39 163.527 134.124 161.426 134.381C159.362 134.617 157.352 134.423 155.394 133.798C153.452 133.115 151.633 132.036 149.936 130.562C148.218 129.05 146.701 127.148 145.384 124.856C144.046 122.526 143.156 120.239 142.716 117.993C142.313 115.726 142.316 113.6 142.725 111.616C143.113 109.594 143.91 107.762 145.115 106.12C146.358 104.456 147.976 103.052 149.967 101.908C151.921 100.786 153.892 100.128 155.88 99.9356C157.906 99.7213 159.85 99.9291 161.711 100.559C163.55 101.151 165.267 102.139 166.861 103.522C168.456 104.905 169.846 106.63 171.033 108.697L172.264 110.838L150.734 123.207L151.511 124.56C152.245 125.837 153.131 126.902 154.171 127.754C155.21 128.607 156.332 129.211 157.537 129.569C158.779 129.904 160.075 129.985 161.423 129.81C162.788 129.575 164.147 129.07 165.499 128.293C167.453 127.17 168.885 125.748 169.795 124.026C170.705 122.304 171.082 120.438 170.927 118.428L175.547 118.772C175.806 121.223 175.287 123.669 173.992 126.112C172.713 128.496 170.627 130.52 167.734 132.182ZM152.104 105.628C150.864 106.34 149.848 107.224 149.055 108.28C148.262 109.335 147.697 110.484 147.361 111.726C147.063 112.947 147.002 114.232 147.177 115.58C147.368 116.87 147.83 118.153 148.564 119.431L148.791 119.825L165.474 110.241L165.118 109.621C164.384 108.344 163.508 107.298 162.49 106.483C161.51 105.647 160.447 105.058 159.302 104.717C158.172 104.316 156.981 104.201 155.729 104.37C154.515 104.518 153.307 104.937 152.104 105.628ZM202.907 114.416C200.69 115.403 198.543 115.908 196.467 115.93C194.412 115.896 192.482 115.45 190.678 114.593C188.874 113.736 187.215 112.458 185.7 110.761C184.226 109.045 182.951 106.98 181.877 104.565C180.802 102.15 180.141 99.8119 179.894 97.5504C179.646 95.289 179.808 93.2012 180.38 91.2871C180.933 89.3333 181.894 87.6016 183.261 86.0919C184.629 84.5822 186.402 83.3429 188.579 82.374C191.549 81.0528 194.254 80.6315 196.696 81.1101C199.139 81.5887 201.262 82.6833 203.067 84.3941L200.164 88.1044C198.905 86.7674 197.429 85.954 195.735 85.6643C194.08 85.357 192.303 85.6261 190.403 86.4717C189.017 87.0883 187.875 87.8807 186.978 88.849C186.103 89.7602 185.474 90.7988 185.092 91.9649C184.71 93.131 184.576 94.3762 184.691 95.7005C184.846 97.0072 185.222 98.3336 185.821 99.6797L188.146 104.906C188.745 106.252 189.478 107.42 190.346 108.409C191.252 109.381 192.267 110.116 193.389 110.612C194.511 111.109 195.732 111.348 197.052 111.33C198.355 111.272 199.718 110.927 201.144 110.292C203.202 109.376 204.693 108.144 205.617 106.595C206.54 105.046 207.028 103.263 207.08 101.248L211.495 102.058C211.501 104.522 210.833 106.859 209.492 109.068C208.19 111.26 205.996 113.042 202.907 114.416ZM239.263 99.3528C236.847 100.19 234.832 100.131 233.217 99.1772C231.643 98.209 230.488 96.6603 229.75 94.5311L222.728 74.263L212.164 77.9229L210.717 73.7465L218.579 71.0228C219.643 70.654 220.31 70.1939 220.577 69.6426C220.872 69.0362 220.834 68.2007 220.465 67.1361L217.593 58.8446L222.322 57.2062L226.195 68.3843L240.628 63.3839L242.075 67.5603L227.642 72.5608L235.728 95.8998L250.161 90.8993L251.608 95.0758L239.263 99.3528ZM297.833 78.1959L307.463 76.2978L302.686 52.0641L293.057 53.9622L292.202 49.6257L306.933 46.7219L308.567 55.0124L308.886 54.9495C309.055 52.222 309.933 49.9511 311.518 48.1368C313.138 46.2717 315.415 45.05 318.349 44.4717L322.94 43.5667L323.946 48.6685L317.76 49.8878C314.826 50.4661 312.613 51.7857 311.12 53.8467C309.67 55.8992 309.217 58.3073 309.762 61.0708L312.565 75.2921L325.319 72.778L326.174 77.1146L298.688 82.5325L297.833 78.1959ZM352.019 74.0581C349.614 74.3818 347.391 74.2657 345.348 73.7099C343.349 73.1482 341.561 72.2083 339.984 70.8902C338.445 69.5233 337.169 67.8368 336.155 65.8307C335.136 63.7817 334.45 61.4473 334.098 58.8276C333.739 56.165 333.781 53.7109 334.222 51.4653C334.706 49.2139 335.512 47.2471 336.641 45.5648C337.764 43.8396 339.195 42.4447 340.931 41.3801C342.711 40.3098 344.739 39.6215 347.015 39.3151C349.248 39.0146 351.322 39.1509 353.235 39.7241C355.192 40.2915 356.913 41.2186 358.398 42.5053C359.877 43.7491 361.093 45.3126 362.046 47.1956C362.999 49.0786 363.634 51.2012 363.952 53.5632L364.282 56.0111L339.674 59.3233L339.882 60.8693C340.078 62.3295 340.497 63.6505 341.137 64.8324C341.777 66.0142 342.587 66.9983 343.567 67.7845C344.59 68.565 345.759 69.1291 347.074 69.4768C348.426 69.7758 349.875 69.8213 351.421 69.6132C353.654 69.3126 355.518 68.5371 357.011 67.2868C358.504 66.0364 359.559 64.4516 360.175 62.5322L364.322 64.5974C363.635 66.9636 362.23 69.0328 360.108 70.8051C358.022 72.5287 355.326 73.613 352.019 74.0581ZM347.588 43.5668C346.17 43.7575 344.895 44.1915 343.762 44.8687C342.629 45.5459 341.672 46.3962 340.892 47.4194C340.154 48.4369 339.611 49.603 339.264 50.9178C338.953 52.1839 338.896 53.547 339.093 55.0072L339.153 55.4581L358.221 52.8916L358.126 52.183C357.93 50.7229 357.514 49.4233 356.88 48.2844C356.289 47.1397 355.527 46.1928 354.596 45.4438C353.701 44.6459 352.642 44.0889 351.419 43.7725C350.239 43.4504 348.962 43.3818 347.588 43.5668ZM375.67 65.9448L386.947 65.0761L385.05 40.4491L373.125 41.3676L372.786 36.9607L384.71 36.0421L384.181 29.1725C384.008 26.9258 384.45 25.0447 385.507 23.529C386.607 22.0101 388.431 21.1524 390.98 20.956L402.192 20.0924L402.532 24.4993L389.116 25.5327L389.895 35.6428L403.31 34.6094L403.65 39.0163L390.235 40.0497L392.132 64.6768L404.056 63.7582L404.396 68.1651L376.01 70.3517L375.67 65.9448ZM414.584 63.2372L426.281 62.974L425.398 23.7239L413.701 23.9872L413.601 19.5683L430.497 19.188L431.48 62.857L443.177 62.5937L443.276 67.0126L414.683 67.6561L414.584 63.2372ZM468.496 68.2972C466.07 68.2222 463.895 67.743 461.972 66.8597C460.092 65.9778 458.482 64.7574 457.143 63.1986C455.848 61.5978 454.866 59.7248 454.195 57.5797C453.526 55.3913 453.232 52.9761 453.314 50.334C453.397 47.6486 453.84 45.2345 454.644 43.0917C455.49 40.9502 456.608 39.1422 457.998 37.6678C459.389 36.1501 461.028 35.0086 462.916 34.2433C464.848 33.4794 466.961 33.1329 469.257 33.204C471.509 33.2737 473.532 33.7482 475.325 34.6274C477.162 35.508 478.708 36.7047 479.962 38.2176C481.217 39.6871 482.16 41.4288 482.791 43.4426C483.423 45.4564 483.701 47.6544 483.628 50.0366L483.551 52.5054L458.733 51.7373L458.685 53.2966C458.639 54.7692 458.835 56.1409 459.273 57.4117C459.71 58.6825 460.348 59.7861 461.186 60.7225C462.068 61.6602 463.128 62.4084 464.368 62.967C465.653 63.4837 467.075 63.7661 468.634 63.8144C470.887 63.8841 472.852 63.4247 474.53 62.4361C476.208 61.4475 477.508 60.0571 478.431 58.2648L482.183 60.9822C481.117 63.2036 479.392 65.0144 477.008 66.4147C474.668 67.7729 471.831 68.4005 468.496 68.2972ZM469.124 37.4919C467.694 37.4477 466.365 37.6667 465.137 38.1489C463.908 38.6311 462.824 39.3129 461.887 40.1943C460.992 41.0771 460.266 42.1385 459.707 43.3784C459.193 44.5764 458.913 45.9118 458.868 47.3844L458.854 47.8392L478.085 48.4344L478.107 47.7197C478.152 46.2471 477.956 44.897 477.517 43.6695C477.121 42.4434 476.525 41.3844 475.729 40.4927C474.978 39.559 474.025 38.8359 472.87 38.3232C471.758 37.8119 470.51 37.5348 469.124 37.4919ZM507.922 70.6492C505.505 70.4414 503.381 69.8457 501.552 68.8621C499.77 67.839 498.296 66.5162 497.131 64.8938C495.965 63.2714 495.13 61.3511 494.625 59.133C494.163 56.9187 494.045 54.4947 494.271 51.8611C494.498 49.2274 495.049 46.861 495.925 44.7616C496.802 42.6623 497.952 40.9128 499.378 39.513C500.806 38.0701 502.484 37.0182 504.411 36.3575C506.338 35.6968 508.489 35.4685 510.864 35.6726C514.102 35.9509 516.674 36.8897 518.581 38.4889C520.488 40.088 521.817 42.0726 522.571 44.4424L518.237 46.288C517.781 44.5091 516.881 43.0835 515.538 42.0112C514.238 40.9426 512.552 40.3193 510.48 40.1411C508.968 40.0112 507.586 40.1534 506.333 40.5675C505.126 40.9423 504.074 41.5477 503.176 42.3838C502.277 43.22 501.559 44.2455 501.019 45.4605C500.523 46.6791 500.212 48.0224 500.086 49.4903L499.596 55.1893C499.47 56.6572 499.547 58.0339 499.828 59.3193C500.152 60.6085 500.685 61.7417 501.428 62.7188C502.17 63.696 503.123 64.4956 504.288 65.1176C505.456 65.6964 506.817 66.0526 508.371 66.1863C510.616 66.3792 512.517 66.0207 514.074 65.1107C515.631 64.2007 516.919 62.8762 517.939 61.1371L521.413 63.9801C520.227 66.1398 518.513 67.8627 516.272 69.1487C514.073 70.4385 511.29 70.9387 507.922 70.6492ZM547.131 74.4488C544.6 74.0845 542.836 73.1083 541.839 71.52C540.884 69.9379 540.568 68.0317 540.889 65.8014L543.945 44.5701L532.879 42.9774L533.508 38.6025L541.743 39.7878C542.859 39.9483 543.662 39.845 544.152 39.4778C544.692 39.0739 545.042 38.3143 545.203 37.1992L546.453 28.5137L551.407 29.2267L549.721 40.936L564.84 43.1121L564.211 47.4871L549.092 45.311L545.573 69.759L560.692 71.9351L560.062 76.31L547.131 74.4488ZM608.955 81.9751L618.412 84.6021L625.023 60.8032L615.566 58.1762L616.749 53.9175L631.216 57.9363L628.955 66.078L629.268 66.165C630.643 63.8036 632.447 62.1683 634.678 61.2591C636.963 60.3197 639.546 60.2501 642.427 61.0504L646.936 62.303L645.544 67.3133L639.469 65.6257C636.589 64.8255 634.018 65.011 631.759 66.1824C629.542 67.3653 628.056 69.3138 627.302 72.0277L623.422 85.9938L635.948 89.4733L634.765 93.7321L607.772 86.2338L608.955 81.9751ZM659.124 102.872C656.841 102.048 654.922 100.919 653.367 99.4826C651.853 98.0612 650.701 96.4019 649.911 94.5048C649.177 92.5815 648.823 90.4963 648.851 88.2489C648.893 85.9608 649.362 83.5735 650.259 81.087C651.17 78.5597 652.34 76.4019 653.768 74.6137C655.237 72.8401 656.861 71.4679 658.639 70.4969C660.432 69.4852 662.344 68.9082 664.376 68.7659C666.449 68.6382 668.566 68.964 670.726 69.7432C672.846 70.5077 674.622 71.5859 676.055 72.9779C677.529 74.3846 678.627 76.0014 679.35 77.8284C680.088 79.6147 680.444 81.5629 680.42 83.6733C680.396 85.7836 679.98 87.9598 679.171 90.2017L678.333 92.5252L654.976 84.1011L654.447 85.5686C653.947 86.9546 653.708 88.3195 653.73 89.6633C653.752 91.0072 654.016 92.2541 654.523 93.4042C655.07 94.5689 655.847 95.6091 656.852 96.5246C657.914 97.414 659.178 98.1234 660.645 98.6527C662.765 99.4171 664.776 99.5896 666.678 99.1699C668.58 98.7503 670.247 97.8314 671.68 96.4134L674.405 100.16C672.703 101.942 670.501 103.129 667.8 103.721C665.155 104.287 662.263 104.004 659.124 102.872ZM669.271 73.7788C667.926 73.2936 666.594 73.0898 665.277 73.1673C663.959 73.2448 662.717 73.5572 661.553 74.1045C660.429 74.6665 659.409 75.4503 658.493 76.456C657.633 77.4357 656.953 78.6185 656.454 80.0044L656.299 80.4325L674.398 86.96L674.641 86.2874C675.141 84.9015 675.372 83.557 675.335 82.2539C675.339 80.9655 675.101 79.774 674.621 78.6794C674.196 77.5588 673.514 76.5758 672.575 75.7304C671.677 74.8998 670.575 74.2492 669.271 73.7788ZM683.899 106.795L694.165 111.542L704.531 89.1218L693.675 84.1027L695.53 80.0907L706.386 85.1099L709.277 78.856C710.223 76.8107 711.527 75.3846 713.189 74.5776C714.89 73.7888 716.902 73.9309 719.222 75.0038L729.429 79.7229L727.574 83.7349L715.361 78.0883L711.106 87.2922L723.319 92.9388L721.464 96.9507L709.251 91.3041L698.885 113.724L709.741 118.743L707.886 122.755L682.045 110.807L683.899 106.795ZM719.242 123.773L729.279 129.785L749.454 96.1055L739.417 90.0932L741.688 86.3014L756.186 94.9858L733.74 132.458L743.777 138.47L741.506 142.262L716.971 127.565L719.242 123.773ZM761.117 158.07C759.223 156.554 757.772 154.865 756.764 153.003C755.79 151.169 755.236 149.226 755.101 147.176C755.028 145.118 755.367 143.031 756.119 140.913C756.898 138.761 758.113 136.653 759.765 134.59C761.444 132.492 763.248 130.828 765.178 129.597C767.141 128.393 769.12 127.619 771.117 127.275C773.141 126.896 775.137 126.968 777.106 127.49C779.109 128.039 781.007 129.031 782.8 130.466C784.559 131.874 785.892 133.469 786.798 135.249C787.738 137.056 788.255 138.941 788.349 140.904C788.47 142.832 788.178 144.792 787.474 146.781C786.769 148.77 785.672 150.695 784.183 152.556L782.639 154.484L763.256 138.966L762.281 140.184C761.36 141.334 760.693 142.549 760.28 143.828C759.866 145.106 759.714 146.372 759.822 147.624C759.963 148.903 760.362 150.138 761.018 151.33C761.735 152.514 762.702 153.594 763.92 154.569C765.679 155.977 767.527 156.79 769.462 157.007C771.397 157.224 773.272 156.893 775.086 156.014L776.455 160.441C774.269 161.577 771.802 161.989 769.054 161.677C766.368 161.358 763.722 160.155 761.117 158.07ZM780.119 133.815C779.002 132.921 777.808 132.298 776.536 131.946C775.264 131.594 773.988 131.488 772.709 131.63C771.464 131.799 770.246 132.211 769.054 132.867C767.924 133.517 766.898 134.416 765.977 135.566L765.693 135.922L780.713 147.946L781.16 147.388C782.08 146.238 782.734 145.04 783.12 143.795C783.54 142.577 783.7 141.372 783.598 140.181C783.558 138.983 783.23 137.833 782.615 136.729C782.033 135.653 781.201 134.682 780.119 133.815ZM789.24 185.392C787.654 183.556 786.549 181.647 785.926 179.666C785.364 177.69 785.231 175.714 785.529 173.738C785.827 171.763 786.569 169.805 787.756 167.864C788.97 165.956 790.578 164.138 792.578 162.41C794.579 160.682 796.625 159.372 798.718 158.48C800.811 157.588 802.856 157.139 804.854 157.131C806.884 157.095 808.82 157.513 810.661 158.385C812.502 159.257 814.202 160.594 815.76 162.398C817.884 164.857 819.071 167.325 819.32 169.801C819.57 172.277 819.137 174.627 818.022 176.849L813.63 175.146C814.545 173.554 814.896 171.905 814.683 170.2C814.498 168.527 813.725 166.904 812.366 165.33C811.374 164.182 810.285 163.319 809.098 162.741C807.973 162.167 806.797 161.866 805.57 161.838C804.343 161.81 803.112 162.042 801.878 162.536C800.672 163.062 799.512 163.807 798.397 164.77L794.068 168.509C792.953 169.473 792.048 170.513 791.352 171.629C790.684 172.779 790.275 173.962 790.125 175.18C789.974 176.398 790.099 177.636 790.498 178.894C790.931 180.124 791.657 181.329 792.677 182.51C794.15 184.215 795.761 185.285 797.512 185.72C799.262 186.155 801.109 186.106 803.053 185.572L803.556 190.033C801.199 190.752 798.77 190.789 796.267 190.145C793.792 189.535 791.45 187.95 789.24 185.392ZM811.071 217.631C809.942 215.337 809.752 213.33 810.499 211.61C811.266 209.929 812.66 208.591 814.682 207.596L833.929 198.128L828.994 188.096L832.96 186.145L836.633 193.61C837.13 194.621 837.669 195.226 838.249 195.423C838.887 195.64 839.712 195.5 840.723 195.003L848.596 191.129L850.806 195.62L840.191 200.843L846.934 214.549L842.968 216.5L836.225 202.794L814.062 213.697L820.804 227.403L816.838 229.354L811.071 217.631ZM826.834 277.87L824.548 287.415L848.57 293.167L850.855 283.622L855.154 284.651L851.657 299.253L843.439 297.285L843.364 297.601C845.773 298.891 847.472 300.635 848.461 302.832C849.482 305.082 849.644 307.66 848.948 310.568L847.858 315.12L842.801 313.909L844.269 307.777C844.965 304.869 844.688 302.307 843.436 300.092C842.174 297.918 840.173 296.503 837.434 295.847L823.338 292.472L820.31 305.115L816.012 304.086L822.536 276.841L826.834 277.87ZM803.576 326.443C804.836 324.369 806.324 322.712 808.041 321.473C809.734 320.271 811.589 319.472 813.605 319.074C815.636 318.736 817.75 318.803 819.947 319.276C822.181 319.772 824.428 320.706 826.687 322.078C828.983 323.473 830.866 325.048 832.335 326.803C833.782 328.594 834.804 330.458 835.403 332.393C836.039 334.351 836.225 336.34 835.961 338.36C835.675 340.417 834.935 342.427 833.743 344.39C832.573 346.316 831.163 347.843 829.515 348.971C827.843 350.136 826.041 350.891 824.107 351.237C822.209 351.606 820.229 351.569 818.166 351.126C816.102 350.684 814.052 349.844 812.015 348.606L809.904 347.324L822.797 326.103L821.463 325.293C820.204 324.528 818.914 324.023 817.592 323.778C816.271 323.533 814.996 323.544 813.769 323.813C812.518 324.118 811.345 324.672 810.248 325.476C809.166 326.34 808.219 327.438 807.409 328.771C806.239 330.697 805.671 332.634 805.705 334.581C805.739 336.528 806.308 338.345 807.414 340.031L803.201 341.958C801.792 339.936 801.066 337.543 801.022 334.778C800.992 332.073 801.844 329.294 803.576 326.443ZM830.076 342.163C830.819 340.941 831.283 339.676 831.468 338.369C831.654 337.062 831.594 335.783 831.289 334.533C830.961 333.32 830.395 332.165 829.591 331.068C828.802 330.031 827.778 329.13 826.519 328.365L826.13 328.128L816.14 344.571L816.751 344.943C818.01 345.708 819.282 346.201 820.566 346.424C821.828 346.684 823.043 346.687 824.211 346.433C825.394 346.239 826.493 345.766 827.508 345.013C828.5 344.298 829.356 343.348 830.076 342.163ZM793.868 349.835L785.941 357.902L803.559 375.214L811.941 366.683L815.094 369.781L806.711 378.312L811.625 383.141C813.233 384.72 814.136 386.429 814.336 388.265C814.506 390.133 813.694 391.979 811.902 393.802L804.021 401.823L800.868 398.725L810.299 389.128L803.066 382.021L793.636 391.618L790.483 388.52L799.914 378.923L782.296 361.61L773.914 370.141L770.761 367.043L790.716 346.737L793.868 349.835ZM765.616 377.276L756.152 384.155L779.236 415.912L788.7 409.032L791.299 412.608L777.629 422.544L751.946 387.213L742.482 394.092L739.883 390.517L763.017 373.701L765.616 377.276ZM717.758 402.549C719.883 401.378 721.998 400.682 724.104 400.462C726.171 400.263 728.178 400.493 730.124 401.152C732.054 401.87 733.853 402.982 735.523 404.486C737.214 406.028 738.697 407.956 739.973 410.272C741.269 412.625 742.118 414.928 742.518 417.181C742.881 419.455 742.84 421.58 742.395 423.557C741.971 425.572 741.142 427.389 739.908 429.01C738.635 430.651 736.993 432.026 734.981 433.134C733.008 434.221 731.025 434.844 729.034 435.001C727.005 435.179 725.065 434.937 723.216 434.274C721.387 433.649 719.688 432.63 718.119 431.219C716.55 429.808 715.19 428.059 714.04 425.971L712.848 423.808L734.595 411.825L733.842 410.459C733.131 409.168 732.263 408.088 731.239 407.217C730.215 406.347 729.104 405.722 727.906 405.343C726.67 404.985 725.376 404.882 724.025 405.033C722.656 405.243 721.288 405.724 719.922 406.477C717.949 407.564 716.492 408.961 715.551 410.666C714.611 412.372 714.2 414.231 714.32 416.243L709.706 415.817C709.492 413.362 710.053 410.925 711.392 408.505C712.713 406.145 714.835 404.159 717.758 402.549ZM732.911 429.377C734.164 428.687 735.196 427.821 736.007 426.78C736.819 425.739 737.404 424.6 737.762 423.364C738.082 422.149 738.166 420.866 738.015 419.514C737.847 418.221 737.407 416.93 736.696 415.639L736.477 415.241L719.626 424.526L719.971 425.152C720.682 426.443 721.539 427.504 722.542 428.337C723.507 429.19 724.559 429.798 725.699 430.16C726.821 430.58 728.009 430.717 729.264 430.57C730.481 430.444 731.697 430.046 732.911 429.377ZM682.298 419.754C684.529 418.799 686.683 418.325 688.76 418.332C690.814 418.396 692.737 418.869 694.529 419.752C696.321 420.634 697.961 421.935 699.451 423.654C700.902 425.391 702.147 427.474 703.187 429.904C704.227 432.334 704.854 434.681 705.069 436.946C705.285 439.211 705.093 441.296 704.495 443.202C703.913 445.147 702.928 446.865 701.539 448.355C700.15 449.846 698.36 451.059 696.169 451.997C693.181 453.276 690.469 453.659 688.034 453.146C685.599 452.632 683.492 451.507 681.712 449.771L684.667 446.103C685.906 447.457 687.371 448.292 689.061 448.605C690.711 448.936 692.492 448.692 694.404 447.874C695.798 447.277 696.951 446.501 697.862 445.546C698.75 444.647 699.393 443.618 699.792 442.457C700.191 441.296 700.342 440.053 700.246 438.727C700.11 437.419 699.753 436.087 699.173 434.733L696.922 429.474C696.343 428.119 695.626 426.941 694.773 425.939C693.88 424.955 692.876 424.206 691.761 423.693C690.646 423.181 689.429 422.924 688.109 422.923C686.806 422.963 685.437 423.289 684.003 423.903C681.932 424.79 680.423 426.001 679.478 427.537C678.533 429.072 678.02 430.847 677.939 432.862L673.535 431.989C673.565 429.525 674.266 427.198 675.638 425.008C676.971 422.835 679.191 421.084 682.298 419.754ZM645.745 434.34C648.171 433.532 650.186 433.615 651.789 434.589C653.35 435.576 654.487 437.139 655.198 439.277L661.972 459.629L672.58 456.099L673.976 460.292L666.082 462.92C665.013 463.276 664.341 463.728 664.067 464.276C663.765 464.878 663.792 465.714 664.148 466.783L666.919 475.109L662.17 476.69L658.434 465.465L643.941 470.289L642.545 466.095L657.039 461.271L649.238 437.835L634.745 442.659L633.349 438.465L645.745 434.34ZM586.949 454.858L577.301 456.658L581.831 480.939L591.479 479.139L592.29 483.484L577.53 486.238L575.98 477.931L575.661 477.991C575.464 480.717 574.563 482.978 572.959 484.776C571.32 486.625 569.031 487.824 566.092 488.372L561.492 489.23L560.538 484.118L566.736 482.962C569.675 482.414 571.902 481.117 573.416 479.071C574.887 477.033 575.364 474.63 574.847 471.861L572.189 457.612L559.41 459.996L558.599 455.651L586.139 450.513L586.949 454.858ZM532.726 458.471C535.134 458.168 537.357 458.304 539.394 458.878C541.388 459.457 543.168 460.413 544.733 461.745C546.26 463.126 547.521 464.823 548.517 466.838C549.518 468.896 550.183 471.237 550.512 473.859C550.847 476.525 550.784 478.979 550.323 481.22C549.819 483.467 548.995 485.427 547.851 487.099C546.713 488.814 545.27 490.197 543.524 491.246C541.735 492.3 539.701 492.97 537.422 493.257C535.186 493.537 533.114 493.383 531.206 492.793C529.254 492.208 527.542 491.265 526.068 489.966C524.6 488.709 523.398 487.135 522.462 485.243C521.526 483.352 520.909 481.224 520.612 478.859L520.304 476.408L544.941 473.314L544.747 471.767C544.563 470.305 544.156 468.98 543.527 467.793C542.897 466.605 542.096 465.614 541.123 464.819C540.106 464.029 538.942 463.455 537.631 463.096C536.281 462.785 534.833 462.726 533.285 462.921C531.049 463.201 529.179 463.96 527.675 465.197C526.171 466.434 525.102 468.01 524.469 469.924L520.34 467.822C521.048 465.462 522.471 463.405 524.609 461.652C526.71 459.947 529.416 458.886 532.726 458.471ZM536.887 489C538.306 488.822 539.585 488.399 540.724 487.732C541.863 487.065 542.828 486.223 543.617 485.207C544.364 484.196 544.917 483.035 545.276 481.723C545.598 480.46 545.667 479.097 545.483 477.635L545.427 477.184L526.337 479.581L526.426 480.291C526.609 481.753 527.013 483.056 527.637 484.2C528.218 485.35 528.972 486.304 529.896 487.061C530.784 487.867 531.838 488.433 533.058 488.76C534.235 489.093 535.512 489.173 536.887 489ZM509.007 466.376L497.723 467.15L499.413 491.792L511.345 490.974L511.647 495.383L499.715 496.202L500.187 503.075C500.341 505.324 499.883 507.201 498.814 508.708C497.701 510.217 495.87 511.06 493.319 511.234L482.1 512.004L481.798 507.594L495.221 506.674L494.528 496.557L481.104 497.478L480.802 493.068L494.225 492.148L492.535 467.506L480.604 468.324L480.301 463.914L508.704 461.966L509.007 466.376ZM470.072 468.757L458.373 468.922L458.929 508.178L470.627 508.013L470.69 512.432L453.792 512.671L453.173 468.996L441.474 469.161L441.412 464.742L470.009 464.337L470.072 468.757ZM416.204 463.247C418.628 463.342 420.799 463.839 422.715 464.739C424.588 465.636 426.187 466.87 427.513 468.44C428.794 470.052 429.761 471.933 430.414 474.083C431.065 476.277 431.338 478.695 431.235 481.336C431.129 484.021 430.666 486.431 429.844 488.567C428.98 490.701 427.847 492.5 426.445 493.963C425.041 495.469 423.392 496.596 421.498 497.346C419.561 498.094 417.444 498.423 415.149 498.332C412.898 498.244 410.879 497.752 409.093 496.858C407.263 495.962 405.728 494.753 404.487 493.229C403.244 491.749 402.315 490 401.701 487.981C401.086 485.962 400.826 483.762 400.919 481.38L401.017 478.912L425.827 479.888L425.889 478.329C425.947 476.857 425.762 475.483 425.335 474.209C424.908 472.934 424.28 471.826 423.449 470.882C422.576 469.937 421.521 469.18 420.286 468.611C419.006 468.084 417.586 467.789 416.027 467.728C413.776 467.64 411.807 468.083 410.121 469.057C408.434 470.032 407.123 471.411 406.185 473.196L402.455 470.447C403.54 468.235 405.28 466.438 407.676 465.058C410.027 463.719 412.87 463.116 416.204 463.247ZM415.318 494.046C416.747 494.102 418.078 493.894 419.311 493.422C420.543 492.95 421.632 492.277 422.577 491.404C423.479 490.529 424.214 489.473 424.783 488.238C425.307 487.044 425.598 485.711 425.656 484.239L425.674 483.785L406.449 483.029L406.421 483.743C406.363 485.215 406.548 486.567 406.977 487.798C407.362 489.028 407.949 490.091 408.738 490.99C409.482 491.93 410.429 492.661 411.579 493.183C412.686 493.704 413.932 493.991 415.318 494.046ZM376.799 460.553C379.215 460.783 381.333 461.397 383.153 462.397C384.926 463.436 386.388 464.772 387.539 466.405C388.69 468.038 389.508 469.965 389.993 472.188C390.435 474.406 390.531 476.831 390.281 479.463C390.032 482.094 389.459 484.456 388.564 486.547C387.669 488.639 386.503 490.378 385.065 491.765C383.623 493.195 381.936 494.232 380.003 494.875C378.07 495.518 375.918 495.728 373.545 495.502C370.31 495.195 367.746 494.233 365.853 492.617C363.961 491.001 362.649 489.005 361.917 486.628L366.267 484.821C366.707 486.604 367.594 488.038 368.928 489.122C370.218 490.202 371.898 490.841 373.969 491.037C375.479 491.181 376.862 491.051 378.119 490.648C379.329 490.284 380.387 489.688 381.293 488.86C382.198 488.032 382.926 487.013 383.477 485.803C383.984 484.589 384.307 483.248 384.446 481.781L384.987 476.087C385.126 474.62 385.061 473.243 384.792 471.955C384.479 470.663 383.956 469.525 383.222 468.541C382.489 467.558 381.543 466.75 380.384 466.117C379.221 465.528 377.863 465.16 376.31 465.012C374.067 464.799 372.163 465.141 370.598 466.037C369.033 466.933 367.733 468.246 366.698 469.976L363.249 467.102C364.454 464.953 366.183 463.245 368.437 461.979C370.647 460.709 373.434 460.234 376.799 460.553ZM337.628 456.39C340.155 456.778 341.909 457.771 342.891 459.369C343.83 460.96 344.129 462.869 343.786 465.097L340.527 486.297L351.577 487.996L350.905 492.365L342.682 491.101C341.569 490.93 340.765 491.025 340.271 491.388C339.727 491.786 339.37 492.542 339.198 493.656L337.865 502.329L332.918 501.569L334.716 489.876L319.618 487.555L320.29 483.186L335.387 485.507L339.141 461.094L324.043 458.773L324.715 454.404L337.628 456.39ZM275.874 448.253L266.448 445.518L259.565 469.239L268.991 471.975L267.759 476.22L253.339 472.035L255.694 463.92L255.382 463.829C253.979 466.175 252.157 467.789 249.915 468.673C247.62 469.586 245.036 469.626 242.165 468.793L237.67 467.488L239.119 462.495L245.175 464.252C248.046 465.085 250.618 464.929 252.891 463.783C255.122 462.626 256.63 460.695 257.415 457.99L261.454 444.069L248.969 440.446L250.201 436.201L277.106 444.008L275.874 448.253ZM225.958 426.762C228.231 427.614 230.135 428.767 231.672 430.223C233.168 431.663 234.299 433.337 235.065 435.244C235.775 437.176 236.102 439.266 236.046 441.513C235.975 443.8 235.476 446.181 234.547 448.656C233.604 451.172 232.407 453.315 230.957 455.085C229.466 456.84 227.825 458.191 226.035 459.14C224.229 460.129 222.309 460.682 220.276 460.798C218.201 460.9 216.089 460.547 213.938 459.741C211.828 458.95 210.066 457.849 208.651 456.439C207.195 455.014 206.118 453.383 205.418 451.547C204.703 449.752 204.37 447.799 204.421 445.689C204.472 443.58 204.916 441.409 205.752 439.177L206.62 436.865L229.869 445.583L230.417 444.122C230.934 442.743 231.19 441.381 231.185 440.037C231.18 438.693 230.931 437.443 230.439 436.286C229.907 435.115 229.143 434.065 228.149 433.137C227.1 432.234 225.844 431.509 224.384 430.961C222.274 430.17 220.265 429.972 218.358 430.368C216.451 430.763 214.773 431.661 213.322 433.061L210.644 429.28C212.369 427.52 214.585 426.361 217.293 425.803C219.946 425.27 222.834 425.59 225.958 426.762ZM215.445 455.724C216.784 456.226 218.112 456.447 219.431 456.386C220.75 456.325 221.995 456.028 223.166 455.496C224.297 454.948 225.327 454.177 226.255 453.183C227.127 452.214 227.822 451.04 228.34 449.661L228.499 449.235L210.484 442.479L210.233 443.148C209.716 444.528 209.468 445.87 209.488 447.173C209.468 448.461 209.691 449.656 210.157 450.756C210.568 451.882 211.238 452.874 212.166 453.731C213.053 454.573 214.146 455.237 215.445 455.724ZM201.231 422.508L191.039 417.606L180.332 439.865L191.11 445.049L189.194 449.032L178.416 443.848L175.43 450.057C174.453 452.088 173.128 453.494 171.453 454.275C169.74 455.038 167.732 454.865 165.428 453.757L155.294 448.883L157.21 444.9L169.335 450.732L173.73 441.594L161.605 435.762L163.521 431.779L175.646 437.611L186.353 415.352L175.574 410.168L177.49 406.184L203.147 418.525L201.231 422.508ZM166.148 404.97L156.226 398.771L135.424 432.067L145.347 438.267L143.005 442.015L128.672 433.061L151.816 396.016L141.893 389.817L144.235 386.068L168.49 401.222L166.148 404.97ZM125.01 369.803C126.866 371.367 128.274 373.091 129.235 374.977C130.163 376.836 130.668 378.791 130.752 380.845C130.774 382.903 130.383 384.982 129.578 387.08C128.746 389.212 127.478 391.289 125.775 393.31C124.044 395.365 122.199 396.983 120.239 398.166C118.247 399.32 116.248 400.045 114.244 400.339C112.211 400.667 110.217 400.545 108.262 399.974C106.273 399.376 104.401 398.336 102.644 396.857C100.921 395.405 99.6285 393.778 98.767 391.975C97.8724 390.145 97.4026 388.248 97.3577 386.284C97.2848 384.352 97.6253 382.401 98.3794 380.43C99.1334 378.459 100.278 376.562 101.814 374.739L103.405 372.85L122.395 388.848L123.4 387.655C124.349 386.528 125.046 385.33 125.491 384.062C125.936 382.794 126.121 381.533 126.044 380.278C125.935 378.996 125.567 377.751 124.941 376.544C124.254 375.342 123.313 374.238 122.12 373.233C120.397 371.781 118.571 370.923 116.641 370.657C114.712 370.392 112.83 370.676 110.994 371.509L109.736 367.05C111.95 365.969 114.427 365.619 117.166 365.999C119.843 366.386 122.458 367.653 125.01 369.803ZM105.408 393.576C106.502 394.497 107.68 395.15 108.943 395.534C110.206 395.918 111.479 396.055 112.761 395.945C114.01 395.808 115.238 395.426 116.446 394.8C117.592 394.179 118.64 393.305 119.589 392.178L119.882 391.83L105.168 379.434L104.707 379.981C103.758 381.108 103.074 382.289 102.657 383.524C102.207 384.731 102.017 385.931 102.089 387.125C102.099 388.323 102.398 389.482 102.986 390.6C103.54 391.69 104.348 392.682 105.408 393.576ZM97.7417 341.669C99.2634 343.559 100.301 345.505 100.856 347.506C101.349 349.501 101.413 351.48 101.046 353.444C100.68 355.408 99.8705 357.339 98.6176 359.238C97.3374 361.103 95.6678 362.864 93.6088 364.522C91.5497 366.179 89.4589 367.417 87.3364 368.236C85.2139 369.054 83.1543 369.433 81.1577 369.371C79.1273 369.337 77.2072 368.852 75.3975 367.917C73.5877 366.982 71.9355 365.586 70.441 363.729C68.403 361.198 67.3024 358.69 67.1391 356.207C66.9759 353.724 67.4899 351.391 68.6811 349.208L73.0112 351.063C72.0415 352.622 71.6336 354.258 71.7877 355.97C71.9147 357.648 72.6303 359.297 73.9346 360.917C74.8857 362.098 75.9442 362.999 77.1101 363.618C78.215 364.23 79.3801 364.572 80.6053 364.643C81.8304 364.713 83.0683 364.523 84.3189 364.073C85.5424 363.589 86.7279 362.885 87.8756 361.961L92.3312 358.374C93.4789 357.45 94.4199 356.442 95.1542 355.35C95.8614 354.225 96.3113 353.056 96.5038 351.844C96.6964 350.632 96.6148 349.39 96.259 348.119C95.8694 346.875 95.1855 345.645 94.2073 344.43C92.7943 342.675 91.2208 341.55 89.4868 341.054C87.7528 340.559 85.9052 340.544 83.944 341.01L83.5954 336.534C85.9756 335.898 88.4053 335.945 90.8845 336.675C93.3364 337.371 95.6222 339.036 97.7417 341.669ZM77.2906 308.592C78.3095 310.937 78.4051 312.951 77.5772 314.633C76.732 316.276 75.276 317.547 73.2094 318.445L53.5367 326.994L57.9927 337.248L53.9389 339.009L50.6229 331.379C50.1738 330.346 49.6642 329.717 49.0941 329.492C48.4669 329.245 47.6367 329.346 46.6034 329.795L38.5555 333.292L36.5607 328.702L47.4104 323.987L41.3224 309.977L45.3762 308.216L51.4642 322.225L74.1176 312.381L68.0296 298.371L72.0833 296.61L77.2906 308.592Z" fill="#0039FF"/>
<path d="M252.766 305.876H243.656V230.17H271.205C278.219 230.17 283.569 232.086 287.257 235.918C290.945 239.751 292.789 245.101 292.789 251.971C292.789 258.117 291.198 263.034 288.016 266.721C284.835 270.409 280.207 272.542 274.133 273.121L293.439 305.876H283.244L264.806 273.554H252.766V305.876ZM270.988 265.854C274.82 265.854 277.785 264.914 279.882 263.034C282.051 261.081 283.136 258.334 283.136 254.791V249.151C283.136 245.608 282.051 242.896 279.882 241.016C277.785 239.064 274.82 238.088 270.988 238.088H252.766V265.854H270.988ZM303.267 305.876V230.17H349.906V238.088H312.378V263.576H348.604V271.494H312.378V297.958H349.906V305.876H303.267ZM362.879 305.876V230.17H410.602V238.088H371.989V263.576H407.348V271.494H371.989V305.876H362.879ZM425.744 305.876V230.17H434.855V297.958H470.755V305.876H425.744ZM482.102 305.876V230.17H528.74V238.088H491.212V263.576H527.438V271.494H491.212V297.958H528.74V305.876H482.102ZM566.985 307.178C557.729 307.178 550.824 303.815 546.268 297.091C541.785 290.366 539.544 280.677 539.544 268.023C539.544 255.369 541.785 245.68 546.268 238.955C550.824 232.231 557.729 228.868 566.985 228.868C570.455 228.868 573.456 229.338 575.987 230.278C578.518 231.218 580.687 232.484 582.495 234.074C584.302 235.665 585.821 237.473 587.05 239.498C588.279 241.45 589.364 243.438 590.304 245.463L582.495 249.042C581.844 247.379 581.085 245.824 580.217 244.378C579.349 242.86 578.301 241.558 577.071 240.474C575.915 239.317 574.505 238.413 572.841 237.762C571.251 237.111 569.298 236.786 566.985 236.786C560.983 236.786 556.5 239.064 553.535 243.619C550.643 248.174 549.197 254.248 549.197 261.841V274.205C549.197 281.798 550.643 287.871 553.535 292.427C556.5 296.982 560.983 299.26 566.985 299.26C569.298 299.26 571.251 298.934 572.841 298.284C574.505 297.633 575.915 296.765 577.071 295.681C578.301 294.524 579.349 293.222 580.217 291.776C581.085 290.258 581.844 288.667 582.495 287.004L590.304 290.583C589.364 292.68 588.279 294.704 587.05 296.657C585.821 298.609 584.302 300.381 582.495 301.971C580.687 303.562 578.518 304.828 575.987 305.768C573.456 306.708 570.455 307.178 566.985 307.178ZM628.657 238.088V305.876H619.546V238.088H594.274V230.17H653.928V238.088H628.657Z" fill="#0039FF"/>
</svg>
