<svg width="887" height="528" viewBox="0 0 887 528" fill="none" xmlns="http://www.w3.org/2000/svg">
<path d="M61.2722 258.103L62.9329 248.736L39.3605 244.556L37.6998 253.923L33.4816 253.175L36.0222 238.846L44.0864 240.276L44.1414 239.965C41.736 238.857 39.9916 237.268 38.9082 235.199C37.7907 233.081 37.4849 230.596 37.9908 227.742L38.7827 223.276L43.7453 224.156L42.6785 230.173C42.1726 233.026 42.5891 235.489 43.928 237.56C45.2742 239.59 47.2914 240.844 49.9795 241.32L63.8128 243.773L66.0124 231.367L70.2306 232.114L65.4904 258.85L61.2722 258.103ZM81.0313 209.795C79.9247 211.87 78.5747 213.554 76.9813 214.847C75.4077 216.102 73.6562 216.977 71.7267 217.471C69.7799 217.909 67.7306 217.958 65.5787 217.62C63.3897 217.262 61.1648 216.48 58.9041 215.275C56.6063 214.05 54.6988 212.628 53.1817 211.01C51.6843 209.355 50.5934 207.607 49.9088 205.767C49.1872 203.906 48.8991 201.992 49.0447 200.023C49.21 198.017 49.8163 196.031 50.8636 194.067C51.8911 192.14 53.1719 190.586 54.706 189.405C56.2599 188.186 57.9632 187.357 59.8161 186.917C61.632 186.458 63.5504 186.386 65.5713 186.702C67.5923 187.018 69.622 187.719 71.6604 188.806L73.7728 189.932L62.4501 211.168L63.7843 211.88C65.0444 212.552 66.3205 212.97 67.6127 213.136C68.9048 213.301 70.1376 213.221 71.3111 212.894C72.5044 212.531 73.6099 211.93 74.6277 211.093C75.6281 210.198 76.4841 209.084 77.1954 207.75C78.223 205.823 78.6675 203.918 78.5289 202.035C78.3903 200.153 77.7404 198.426 76.579 196.855L80.5515 194.76C82.0242 196.64 82.857 198.917 83.05 201.59C83.2257 204.206 82.5528 206.941 81.0313 209.795ZM54.5326 196.023C53.8805 197.246 53.5002 198.495 53.3916 199.77C53.2831 201.045 53.4105 202.279 53.7738 203.472C54.1568 204.628 54.7672 205.715 55.6049 206.733C56.4252 207.694 57.4654 208.511 58.7255 209.182L59.1146 209.39L67.8882 192.935L67.2767 192.609C66.0167 191.937 64.7591 191.528 63.504 191.383C62.2687 191.2 61.0927 191.263 59.976 191.572C58.8421 191.824 57.8045 192.342 56.8633 193.125C55.9418 193.871 55.1649 194.837 54.5326 196.023ZM89.2076 186.642L96.5113 178.468L78.6592 162.517L70.9357 171.161L67.7411 168.307L75.4646 159.663L70.4848 155.214C68.8562 153.758 67.9029 152.146 67.625 150.377C67.375 148.577 68.0755 146.753 69.7265 144.905L76.9883 136.777L80.1829 139.632L71.4939 149.356L78.8227 155.905L87.5116 146.18L90.7062 149.034L82.0173 158.759L99.8694 174.71L107.593 166.066L110.787 168.92L92.4022 189.497L89.2076 186.642ZM129.357 154.174C127.575 155.578 125.712 156.538 123.766 157.055C121.854 157.546 119.932 157.616 117.999 157.267C116.074 156.859 114.21 156.055 112.409 154.854C110.581 153.621 108.862 151.981 107.25 149.936C105.665 147.923 104.486 145.884 103.715 143.819C102.943 141.753 102.597 139.753 102.677 137.819C102.764 135.825 103.27 133.956 104.195 132.212C105.153 130.441 106.523 128.854 108.304 127.451C110.086 126.047 111.933 125.1 113.845 124.61C115.791 124.093 117.726 124.038 119.652 124.446C121.584 124.795 123.464 125.587 125.291 126.82C127.119 128.054 128.825 129.677 130.411 131.69C132.022 133.735 133.214 135.791 133.985 137.856C134.731 139.889 135.06 141.902 134.973 143.895C134.893 145.83 134.374 147.682 133.417 149.452C132.492 151.197 131.139 152.771 129.357 154.174ZM126.667 150.76C128.877 149.018 130.139 146.955 130.452 144.57C130.765 142.184 129.83 139.606 127.647 136.835L124.762 133.173C122.579 130.401 120.291 128.889 117.898 128.635C115.506 128.381 113.205 129.124 110.994 130.866C108.784 132.607 107.522 134.67 107.209 137.056C106.896 139.441 107.831 142.019 110.014 144.791L112.899 148.453C115.083 151.224 117.37 152.737 119.763 152.991C122.155 153.245 124.456 152.501 126.667 150.76ZM145.662 135.759L153.834 130.889L141.58 110.323L133.408 115.193L131.215 111.513L143.716 104.063L147.909 111.099L148.179 110.938C147.445 108.393 147.506 106.034 148.363 103.861C149.234 101.631 150.914 99.7741 153.404 98.2906L157.301 95.9687L159.88 100.298L154.631 103.426C152.141 104.91 150.551 106.836 149.859 109.203C149.204 111.549 149.575 113.895 150.972 116.24L158.164 128.309L168.988 121.859L171.181 125.539L147.855 139.439L145.662 135.759ZM179.207 121.164L165.525 91.6755L169.754 89.7134L171.345 93.1423L171.573 93.0362C171.5 91.6811 171.697 90.4091 172.164 89.2201C172.631 88.0312 173.684 87.0566 175.322 86.2965C177.037 85.5011 178.516 85.3471 179.761 85.8345C180.988 86.2838 182.015 87.15 182.842 88.4332L183.013 88.3536C182.928 86.7727 183.177 85.3143 183.761 83.9784C184.345 82.6425 185.514 81.568 187.266 80.7549C189.666 79.6413 191.655 79.737 193.233 81.0422C194.849 82.3297 196.382 84.5355 197.831 87.6596L207.324 108.119L203.095 110.081L193.947 90.3646C192.78 87.8501 191.709 86.2403 190.734 85.5353C189.779 84.7745 188.616 84.7123 187.245 85.3487C186.025 85.9143 185.22 86.774 184.83 87.9276C184.421 89.0431 184.588 90.4009 185.331 92.0011L195.38 113.66L191.151 115.622L182.003 95.9062C180.836 93.3917 179.765 91.7819 178.79 91.0769C177.835 90.3162 176.691 90.2451 175.358 90.8638C174.138 91.4295 173.314 92.2979 172.886 93.4692C172.477 94.5847 172.644 95.9426 173.387 97.5427L183.436 119.202L179.207 121.164ZM249.358 88.3276L258.51 85.7348L251.985 62.7011L242.833 65.2939L241.665 61.1721L255.667 57.2056L257.899 65.0856L258.202 64.9997C258.151 62.3516 258.819 60.0887 260.208 58.2111C261.626 56.2816 263.729 54.9219 266.517 54.1321L270.881 52.8958L272.255 57.745L266.375 59.4105C263.587 60.2004 261.553 61.6496 260.273 63.7583C259.034 65.8554 258.786 68.2173 259.53 70.844L263.36 84.3611L275.483 80.927L276.65 85.0488L250.525 92.4494L249.358 88.3276ZM301.389 80.1403C299.089 80.6328 296.932 80.6869 294.917 80.3024C292.942 79.9091 291.144 79.1345 289.522 77.9786C287.932 76.7728 286.573 75.2384 285.444 73.3756C284.306 71.4717 283.469 69.2672 282.932 66.762C282.387 64.2157 282.243 61.8411 282.502 59.6382C282.801 57.4264 283.433 55.4655 284.399 53.7554C285.355 52.0043 286.633 50.5494 288.232 49.3909C289.871 48.2236 291.78 47.4068 293.956 46.9406C296.092 46.4833 298.106 46.46 299.998 46.8709C301.931 47.273 303.663 48.0402 305.194 49.1727C306.716 50.2641 308.008 51.684 309.07 53.4324C310.132 55.1808 310.905 57.1844 311.388 59.4432L311.89 61.7841L288.357 66.8242L288.674 68.3026C288.973 69.699 289.476 70.9442 290.183 72.0385C290.89 73.1327 291.746 74.0231 292.752 74.7096C293.799 75.3873 294.971 75.8451 296.268 76.0828C297.597 76.2707 299 76.2063 300.479 75.8897C302.614 75.4323 304.357 74.5436 305.706 73.2237C307.056 71.9039 307.957 70.2935 308.409 68.3927L312.571 70.0784C312.084 72.4163 310.881 74.5209 308.962 76.3922C307.076 78.2136 304.551 79.463 301.389 80.1403ZM294.827 51.0064C293.472 51.2967 292.272 51.8114 291.228 52.5505C290.183 53.2896 289.322 54.1827 288.645 55.2299C288.008 56.2682 287.571 57.4357 287.333 58.7322C287.128 59.9789 287.174 61.3004 287.473 62.6968L287.566 63.128L305.8 59.2226L305.655 58.545C305.356 57.1486 304.857 55.9239 304.159 54.8707C303.502 53.8088 302.696 52.9506 301.74 52.2964C300.816 51.5923 299.751 51.1331 298.545 50.9188C297.381 50.6958 296.141 50.725 294.827 51.0064ZM323.651 70.5451L334.488 68.8932L330.88 45.2266L319.42 46.9734L318.775 42.7383L330.234 40.9915L329.228 34.3897C328.899 32.2307 329.191 30.3806 330.103 28.8396C331.056 27.2922 332.758 26.3318 335.208 25.9584L345.982 24.316L346.628 28.5511L333.736 30.5162L335.217 40.232L348.109 38.2668L348.755 42.5019L335.862 44.4671L339.47 68.1337L350.93 66.3869L351.575 70.622L324.296 74.7801L323.651 70.5451ZM375.352 68.8344C373.094 69.0497 371.008 68.848 369.092 68.2291C367.219 67.6062 365.564 66.6248 364.128 65.2851C362.73 63.8996 361.599 62.2144 360.735 60.2295C359.866 58.2028 359.309 55.8934 359.061 53.3011C358.818 50.7507 358.931 48.3983 359.401 46.244C359.87 44.0897 360.662 42.221 361.777 40.638C362.93 39.0092 364.367 37.7119 366.089 36.746C367.853 35.7761 369.864 35.1835 372.122 34.9681C374.379 34.7527 376.445 34.9565 378.319 35.5794C380.234 36.1983 381.891 37.2005 383.289 38.586C384.724 39.9258 385.876 41.609 386.745 43.6357C387.613 45.6624 388.169 47.9509 388.412 50.5013C388.659 53.0936 388.548 55.4669 388.079 57.6212C387.605 59.7337 386.792 61.6044 385.64 63.2332C384.525 64.8162 383.086 66.0926 381.322 67.0625C379.6 68.0284 377.61 68.619 375.352 68.8344ZM374.939 64.507C377.741 64.2398 379.919 63.1882 381.473 61.3523C383.028 59.5164 383.638 56.8424 383.303 53.3303L382.86 48.6894C382.525 45.1773 381.421 42.6669 379.547 41.158C377.673 39.6491 375.336 39.0282 372.534 39.2955C369.733 39.5627 367.555 40.6142 366 42.4502C364.446 44.2861 363.836 46.9601 364.171 50.4721L364.614 55.1131C364.949 58.6251 366.053 61.1356 367.927 62.6445C369.8 64.1534 372.138 64.7742 374.939 64.507ZM398.735 61.8084L408.239 61.4138L407.247 37.4944L397.742 37.889L397.564 33.6086L412.105 33.0051L412.444 41.188L412.759 41.1749C413.324 38.5873 414.5 36.5417 416.287 35.0383C418.115 33.4912 420.476 32.6575 423.372 32.5373L427.904 32.3492L428.113 37.3849L422.007 37.6383C419.112 37.7585 416.797 38.6954 415.062 40.4488C413.369 42.2005 412.579 44.4402 412.692 47.1679L413.275 61.2048L425.864 60.6822L426.042 64.9625L398.912 66.0887L398.735 61.8084ZM435.206 64.7588L435.545 32.2526L440.207 32.3012L440.167 36.081L440.419 36.0837C440.937 34.829 441.662 33.7655 442.595 32.8932C443.528 32.0209 444.898 31.5942 446.703 31.613C448.593 31.6327 449.995 32.1304 450.909 33.106C451.823 34.0396 452.378 35.2634 452.572 36.7775L452.761 36.7795C453.364 35.3157 454.217 34.1066 455.319 33.152C456.421 32.1975 457.938 31.7303 459.87 31.7504C462.516 31.778 464.27 32.7204 465.132 34.5775C466.037 36.435 466.471 39.0857 466.436 42.5295L466.2 65.0823L461.538 65.0337L461.765 43.2998C461.794 40.528 461.52 38.614 460.943 37.5579C460.409 36.4603 459.385 35.9036 457.873 35.8878C456.529 35.8738 455.433 36.3034 454.584 37.1766C453.735 38.0077 453.301 39.3053 453.283 41.0692L453.034 64.9449L448.372 64.8962L448.599 43.1624C448.628 40.3906 448.354 38.4766 447.777 37.4205C447.242 36.3229 446.24 35.7664 444.77 35.7511C443.426 35.737 442.309 36.1664 441.417 37.0391C440.569 37.8703 440.135 39.1679 440.117 40.9318L439.868 64.8075L435.206 64.7588ZM512.587 63.7963L522.035 64.9069L524.83 41.1306L515.382 40.02L515.882 35.7653L530.335 37.4643L529.379 45.5983L529.692 45.6351C530.659 43.169 532.143 41.3348 534.145 40.1323C536.194 38.893 538.657 38.4425 541.535 38.7808L546.04 39.3104L545.452 44.3159L539.383 43.6025C536.504 43.2642 534.07 43.8238 532.081 45.2815C530.133 46.7441 528.999 48.831 528.681 51.5424L527.04 65.4953L539.554 66.9663L539.054 71.221L512.087 68.051L512.587 63.7963ZM563.822 76.013C561.506 75.6053 559.486 74.8447 557.763 73.7312C556.081 72.625 554.706 71.2315 553.637 69.5508C552.617 67.836 551.934 65.9033 551.587 63.7527C551.248 61.5607 551.3 59.2031 551.744 56.6799C552.196 54.1153 552.955 51.8608 554.022 49.9163C555.131 47.9792 556.454 46.3995 557.991 45.1774C559.535 43.914 561.266 43.0458 563.183 42.573C565.141 42.1073 567.216 42.0675 569.409 42.4533C571.56 42.8318 573.435 43.5669 575.034 44.6586C576.674 45.7576 577.991 47.1194 578.984 48.7442C579.985 50.3276 580.649 52.129 580.976 54.1482C581.303 56.1674 581.266 58.3146 580.866 60.5896L580.451 62.9474L556.749 58.776L556.487 60.2651C556.239 61.6715 556.237 63.0145 556.481 64.2942C556.725 65.5738 557.184 66.7208 557.859 67.735C558.575 68.7565 559.489 69.6211 560.601 70.3285C561.762 71.0019 563.087 71.4697 564.576 71.7318C566.727 72.1103 568.675 71.9415 570.422 71.2254C572.169 70.5093 573.608 69.3554 574.741 67.7637L577.965 70.8898C576.635 72.8733 574.73 74.3717 572.249 75.385C569.816 76.3642 567.007 76.5735 563.822 76.013ZM568.688 46.5483C567.323 46.3081 566.018 46.3343 564.772 46.6268C563.527 46.9193 562.393 47.4235 561.371 48.1393C560.391 48.8623 559.547 49.78 558.84 50.8922C558.181 51.9703 557.728 53.2125 557.48 54.6189L557.404 55.0532L575.77 58.2855L575.89 57.603C576.137 56.1966 576.136 54.8743 575.884 53.636C575.675 52.405 575.25 51.3067 574.609 50.3411C574.018 49.3414 573.203 48.5158 572.167 47.8642C571.171 47.2199 570.012 46.7813 568.688 46.5483ZM588.067 75.5022L598.723 78.0723L604.336 54.7996L593.067 52.0818L594.072 47.9172L605.341 50.635L606.906 44.1431C607.418 42.02 608.388 40.4177 609.815 39.3362C611.284 38.2645 613.222 38.0192 615.631 38.6002L626.226 41.1555L625.222 45.3201L612.544 42.2626L610.24 51.8166L622.918 54.8742L621.913 59.0388L609.236 55.9812L603.623 79.254L614.892 81.9718L613.887 86.1364L587.062 79.6668L588.067 75.5022ZM636.502 93.6745C634.338 92.9956 632.494 91.9989 630.97 90.6843C629.485 89.3823 628.342 87.8352 627.54 86.0429C626.79 84.223 626.403 82.2307 626.377 80.0659C626.365 77.8611 626.748 75.5163 627.528 73.0317C628.295 70.5872 629.313 68.4636 630.583 66.6611C631.852 64.8585 633.308 63.4445 634.951 62.419C636.646 61.3661 638.474 60.7292 640.436 60.5084C642.438 60.3001 644.521 60.5354 646.685 61.2143C648.849 61.8932 650.674 62.8836 652.158 64.1856C653.682 65.5002 654.819 67.0674 655.569 68.8872C656.371 70.6795 656.779 72.6781 656.791 74.883C656.804 77.0879 656.427 79.4126 655.66 81.8571C654.88 84.3417 653.856 86.4853 652.586 88.2879C651.329 90.0503 649.853 91.4581 648.158 92.511C646.516 93.5365 644.693 94.1533 642.691 94.3616C640.729 94.5824 638.666 94.3534 636.502 93.6745ZM637.803 89.5268C640.488 90.3691 642.904 90.2465 645.05 89.159C647.196 88.0714 648.797 85.8446 649.853 82.4783L651.248 78.0301C652.304 74.6638 652.262 71.9215 651.122 69.8031C649.982 67.6847 648.069 66.2043 645.384 65.362C642.699 64.5197 640.284 64.6423 638.138 65.7298C635.992 66.8174 634.391 69.0443 633.335 72.4105L631.939 76.8587C630.883 80.225 630.925 82.9673 632.066 85.0857C633.206 87.2041 635.118 88.6845 637.803 89.5268ZM660.829 96.4337L669.656 99.9798L678.58 77.7652L669.753 74.2191L671.35 70.2439L684.854 75.6687L681.801 83.2684L682.093 83.3858C683.672 81.259 685.585 79.8774 687.832 79.2412C690.134 78.5817 692.629 78.7921 695.318 79.8723L699.527 81.5632L697.649 86.2399L691.978 83.962C689.289 82.8817 686.793 82.7844 684.491 83.6701C682.228 84.5715 680.588 86.2888 679.57 88.8221L674.333 101.858L686.025 106.555L684.428 110.531L659.232 100.409L660.829 96.4337ZM692.802 114.227L707.603 85.2832L711.753 87.4058L710.032 90.7713L710.257 90.886C711.279 89.9936 712.402 89.3651 713.627 89.0005C714.851 88.6359 716.267 88.8648 717.875 89.687C719.558 90.5475 720.591 91.6181 720.973 92.8989C721.375 94.1422 721.326 95.4848 720.824 96.9266L720.993 97.0127C722.185 95.9716 723.488 95.2696 724.9 94.9067C726.312 94.5437 727.878 94.8021 729.598 95.6817C731.954 96.8864 733.104 98.5122 733.048 100.559C733.029 102.625 732.236 105.191 730.668 108.258L720.399 128.339L716.249 126.216L726.144 106.864C727.406 104.396 728.015 102.561 727.969 101.358C727.98 100.138 727.312 99.183 725.966 98.4946C724.77 97.8827 723.597 97.7782 722.447 98.181C721.317 98.5465 720.35 99.5145 719.547 101.085L708.676 122.344L704.525 120.221L714.421 100.87C715.683 98.4016 716.291 96.5663 716.246 95.3637C716.257 94.1429 715.608 93.1978 714.299 92.5286C713.103 91.9167 711.911 91.8026 710.724 92.1863C709.594 92.5518 708.627 93.5198 707.824 95.0904L696.953 116.349L692.802 114.227ZM761.324 150.78L768.41 157.127L784.383 139.296L777.298 132.948L780.156 129.757L790.996 139.468L785.531 145.568L785.766 145.778C787.976 144.318 790.245 143.673 792.575 143.842C794.963 144.009 797.237 145.059 799.395 146.992L802.774 150.019L799.411 153.773L794.859 149.695C792.701 147.762 790.389 146.818 787.922 146.864C785.488 146.939 783.359 147.992 781.538 150.026L772.164 160.49L781.549 168.897L778.69 172.088L758.466 153.971L761.324 150.78ZM794.019 191.943C792.609 190.061 791.657 188.124 791.163 186.133C790.694 184.175 790.645 182.218 791.016 180.261C791.445 178.313 792.27 176.436 793.489 174.631C794.742 172.8 796.394 171.117 798.445 169.582C800.529 168.021 802.625 166.897 804.734 166.209C806.868 165.556 808.914 165.309 810.871 165.47C812.862 165.606 814.718 166.158 816.439 167.125C818.186 168.126 819.726 169.517 821.06 171.299C822.369 173.047 823.233 174.866 823.652 176.756C824.096 178.68 824.124 180.574 823.736 182.439C823.382 184.278 822.633 186.046 821.49 187.742C820.346 189.438 818.85 190.978 817.001 192.363L815.085 193.798L800.659 174.535L799.448 175.441C798.305 176.297 797.385 177.275 796.687 178.375C795.989 179.475 795.539 180.626 795.336 181.827C795.159 183.061 795.234 184.317 795.56 185.594C795.946 186.88 796.592 188.127 797.498 189.338C798.807 191.086 800.344 192.297 802.107 192.97C803.871 193.643 805.71 193.787 807.626 193.402L807.837 197.888C805.509 198.424 803.095 198.212 800.592 197.253C798.148 196.302 795.957 194.532 794.019 191.943ZM817.732 173.791C816.901 172.682 815.932 171.807 814.823 171.168C813.715 170.529 812.544 170.121 811.309 169.944C810.099 169.8 808.856 169.891 807.579 170.218C806.361 170.553 805.18 171.149 804.037 172.005L803.684 172.269L814.862 187.195L815.417 186.78C816.56 185.924 817.464 184.959 818.128 183.884C818.818 182.843 819.26 181.751 819.454 180.609C819.706 179.475 819.678 178.316 819.368 177.131C819.083 175.98 818.538 174.867 817.732 173.791ZM811.438 209.389L815.422 219.601L837.725 210.9L833.511 200.1L837.502 198.543L841.716 209.342L847.937 206.915C849.972 206.121 851.841 206.001 853.544 206.553C855.263 207.145 856.572 208.595 857.473 210.904L861.435 221.057L857.444 222.614L852.703 210.465L843.548 214.038L848.288 226.187L844.297 227.744L839.557 215.595L817.254 224.297L821.468 235.096L817.477 236.653L807.447 210.946L811.438 209.389ZM819.144 260.035C819.063 257.769 819.387 255.698 820.118 253.822C820.851 251.989 821.928 250.395 823.35 249.041C824.816 247.727 826.565 246.698 828.598 245.952C830.672 245.205 833.011 244.785 835.613 244.691C838.173 244.599 840.515 244.851 842.638 245.447C844.76 246.043 846.579 246.944 848.093 248.15C849.651 249.397 850.861 250.908 851.724 252.684C852.588 254.502 853.061 256.545 853.142 258.811C853.224 261.078 852.898 263.128 852.166 264.961C851.435 266.837 850.337 268.431 848.871 269.745C847.449 271.099 845.7 272.15 843.626 272.897C841.551 273.644 839.234 274.064 836.674 274.156C834.071 274.249 831.709 273.998 829.586 273.402C827.505 272.805 825.686 271.883 824.128 270.636C822.614 269.43 821.424 267.917 820.56 266.099C819.698 264.323 819.226 262.302 819.144 260.035ZM823.489 259.879C823.59 262.691 824.511 264.927 826.252 266.588C827.993 268.248 830.626 269.015 834.152 268.888L838.811 268.72C842.336 268.593 844.908 267.639 846.525 265.858C848.142 264.077 848.899 261.78 848.798 258.968C848.697 256.155 847.776 253.919 846.035 252.259C844.294 250.598 841.661 249.832 838.135 249.958L833.476 250.126C829.95 250.253 827.379 251.207 825.762 252.989C824.145 254.77 823.387 257.067 823.489 259.879ZM823.179 284.596L820.287 293.659L843.094 300.936L845.986 291.874L850.067 293.176L845.643 307.04L837.841 304.551L837.745 304.851C839.982 306.27 841.499 308.077 842.298 310.271C843.124 312.519 843.096 315.023 842.215 317.784L840.837 322.105L836.035 320.573L837.893 314.751C838.774 311.99 838.688 309.494 837.637 307.263C836.572 305.072 834.74 303.561 832.139 302.731L818.755 298.461L814.925 310.465L810.843 309.162L819.097 283.294L823.179 284.596ZM807.234 317.32L834.165 335.527L831.554 339.389L828.423 337.272L828.281 337.481C829.043 338.604 829.53 339.796 829.743 341.055C829.957 342.315 829.557 343.692 828.546 345.189C827.487 346.754 826.299 347.649 824.981 347.874C823.698 348.122 822.372 347.909 821.002 347.236L820.896 347.393C821.784 348.703 822.323 350.082 822.511 351.527C822.7 352.973 822.253 354.496 821.171 356.097C819.689 358.289 817.936 359.232 815.911 358.928C813.862 358.659 811.412 357.559 808.558 355.63L789.874 342.998L792.485 339.136L810.491 351.309C812.787 352.862 814.535 353.689 815.734 353.79C816.945 353.949 817.974 353.402 818.82 352.15C819.573 351.036 819.819 349.885 819.559 348.695C819.334 347.529 818.49 346.451 817.029 345.463L797.249 332.09L799.86 328.228L817.866 340.401C820.162 341.954 821.91 342.781 823.109 342.882C824.32 343.041 825.336 342.512 826.16 341.294C826.913 340.181 827.171 339.012 826.934 337.787C826.709 336.621 825.865 335.543 824.404 334.555L804.623 321.182L807.234 317.32ZM759.307 378.132L751.517 383.593L765.258 403.196L773.048 397.736L775.507 401.244L763.59 409.597L758.889 402.891L758.631 403.071C759.552 405.555 759.665 407.912 758.971 410.142C758.267 412.431 756.729 414.407 754.356 416.07L750.642 418.674L747.749 414.547L752.753 411.039C755.126 409.375 756.57 407.338 757.084 404.925C757.564 402.537 757.021 400.225 755.454 397.99L747.39 386.485L737.072 393.718L734.613 390.21L756.848 374.624L759.307 378.132ZM712.407 402.06C714.479 400.946 716.536 400.293 718.578 400.101C720.584 399.928 722.526 400.171 724.406 400.829C726.269 401.545 728.002 402.639 729.606 404.114C731.229 405.625 732.648 407.509 733.861 409.765C735.094 412.059 735.894 414.299 736.26 416.487C736.588 418.695 736.527 420.754 736.077 422.665C735.646 424.614 734.825 426.367 733.612 427.925C732.362 429.503 730.757 430.819 728.797 431.874C726.873 432.908 724.946 433.491 723.014 433.624C721.046 433.777 719.168 433.522 717.382 432.861C715.616 432.238 713.98 431.234 712.473 429.851C710.966 428.467 709.665 426.758 708.571 424.724L707.438 422.615L728.633 411.217L727.917 409.886C727.241 408.628 726.411 407.572 725.427 406.718C724.443 405.864 723.373 405.248 722.215 404.869C721.021 404.51 719.768 404.397 718.456 404.53C717.128 404.72 715.798 405.173 714.466 405.889C712.542 406.923 711.117 408.262 710.188 409.906C709.26 411.549 708.844 413.347 708.939 415.298L704.472 414.839C704.289 412.458 704.857 410.102 706.179 407.77C707.483 405.495 709.559 403.592 712.407 402.06ZM726.828 428.212C728.048 427.555 729.057 426.726 729.854 425.726C730.651 424.725 731.229 423.627 731.588 422.433C731.91 421.258 732.005 420.015 731.872 418.703C731.722 417.449 731.309 416.193 730.632 414.935L730.424 414.547L714 423.379L714.328 423.989C715.004 425.247 715.824 426.284 716.788 427.101C717.715 427.938 718.729 428.537 719.829 428.899C720.913 429.318 722.064 429.462 723.281 429.332C724.462 429.221 725.644 428.848 726.828 428.212ZM693.501 417.368L683.4 421.625L692.698 443.686L703.38 439.183L705.044 443.131L694.362 447.633L696.956 453.787C697.804 455.8 697.975 457.665 697.468 459.382C696.923 461.116 695.509 462.464 693.225 463.427L683.182 467.66L681.518 463.713L693.535 458.647L689.718 449.591L677.701 454.656L676.037 450.709L688.054 445.643L678.755 423.583L668.074 428.085L666.41 424.138L691.837 413.42L693.501 417.368ZM643.672 431.262C645.826 430.552 647.905 430.285 649.91 430.464C651.875 430.656 653.707 431.246 655.404 432.233C657.074 433.274 658.551 434.667 659.834 436.41C661.13 438.194 662.187 440.322 663.003 442.795C663.806 445.228 664.217 447.547 664.237 449.751C664.257 451.956 663.899 453.954 663.164 455.745C662.401 457.589 661.287 459.173 659.822 460.497C658.318 461.834 656.488 462.857 654.335 463.568C652.181 464.279 650.121 464.539 648.156 464.347C646.151 464.168 644.314 463.559 642.643 462.518C640.946 461.53 639.449 460.144 638.153 458.36C636.857 456.577 635.807 454.469 635.004 452.036C634.188 449.563 633.77 447.224 633.75 445.019C633.743 442.854 634.121 440.85 634.883 439.006C635.619 437.215 636.739 435.651 638.244 434.314C639.709 432.99 641.518 431.973 643.672 431.262ZM645.035 435.39C642.362 436.272 640.472 437.781 639.363 439.916C638.255 442.051 638.253 444.794 639.359 448.144L640.82 452.571C641.926 455.921 643.559 458.124 645.721 459.18C647.883 460.235 650.3 460.322 652.972 459.44C655.644 458.558 657.535 457.05 658.644 454.915C659.752 452.78 659.754 450.037 658.648 446.687L657.187 442.26C656.081 438.909 654.447 436.707 652.286 435.651C650.124 434.595 647.707 434.508 645.035 435.39ZM622.35 443.243L613.132 445.592L619.044 468.79L628.262 466.441L629.32 470.593L615.218 474.186L613.195 466.25L612.89 466.328C612.872 468.976 612.143 471.221 610.705 473.061C609.237 474.952 607.098 476.256 604.29 476.971L599.895 478.091L598.65 473.207L604.572 471.698C607.38 470.983 609.452 469.588 610.787 467.514C612.081 465.45 612.392 463.096 611.717 460.45L608.248 446.836L596.038 449.948L594.98 445.797L621.292 439.091L622.35 443.243ZM586.051 447.85L592.072 479.796L587.491 480.659L586.79 476.945L586.543 476.991C586.281 478.323 585.778 479.508 585.033 480.545C584.288 481.583 583.029 482.269 581.254 482.604C579.396 482.954 577.924 482.74 576.837 481.962C575.758 481.225 574.976 480.133 574.489 478.686L574.303 478.721C573.998 480.274 573.398 481.627 572.504 482.778C571.61 483.93 570.213 484.685 568.315 485.042C565.714 485.533 563.81 484.951 562.601 483.299C561.35 481.654 560.406 479.139 559.769 475.755L555.592 453.591L560.173 452.727L564.198 474.086C564.712 476.81 565.354 478.634 566.127 479.557C566.866 480.529 567.978 480.875 569.464 480.595C570.784 480.346 571.776 479.71 572.438 478.688C573.108 477.707 573.28 476.35 572.953 474.616L568.531 451.152L573.112 450.289L577.137 471.648C577.651 474.372 578.294 476.195 579.066 477.118C579.805 478.09 580.896 478.44 582.341 478.168C583.662 477.919 584.674 477.279 585.377 476.249C586.047 475.268 586.219 473.911 585.892 472.178L581.47 448.714L586.051 447.85ZM510.296 463.676L500.808 464.374L502.564 488.25L512.052 487.552L512.366 491.824L497.852 492.892L497.251 484.724L496.937 484.747C496.455 487.351 495.345 489.433 493.607 490.993C491.829 492.598 489.496 493.506 486.606 493.719L482.082 494.052L481.712 489.025L487.807 488.577C490.697 488.364 492.981 487.354 494.659 485.546C496.295 483.741 497.013 481.478 496.812 478.755L495.782 464.744L483.216 465.668L482.902 461.396L509.981 459.404L510.296 463.676ZM457.672 461.467C460.024 461.418 462.153 461.773 464.059 462.531C465.923 463.291 467.542 464.391 468.916 465.833C470.249 467.318 471.294 469.082 472.051 471.124C472.808 473.209 473.213 475.532 473.266 478.094C473.32 480.697 473.012 483.056 472.342 485.17C471.63 487.286 470.638 489.092 469.367 490.588C468.096 492.127 466.567 493.314 464.778 494.149C462.947 494.985 460.918 495.426 458.693 495.473C456.509 495.518 454.527 495.16 452.747 494.399C450.925 493.638 449.369 492.557 448.08 491.156C446.791 489.796 445.791 488.158 445.079 486.24C444.367 484.322 443.987 482.209 443.94 479.899L443.89 477.506L467.951 477.007L467.919 475.495C467.89 474.067 467.631 472.749 467.144 471.541C466.657 470.333 465.984 469.297 465.126 468.432C464.226 467.569 463.162 466.898 461.934 466.419C460.665 465.983 459.274 465.781 457.762 465.813C455.579 465.858 453.7 466.401 452.125 467.442C450.55 468.483 449.361 469.894 448.558 471.675L444.79 469.232C445.71 467.029 447.289 465.19 449.527 463.715C451.724 462.283 454.439 461.534 457.672 461.467ZM458.606 491.316C459.992 491.287 461.268 491.008 462.433 490.48C463.598 489.952 464.613 489.238 465.476 488.337C466.298 487.438 466.948 486.374 467.426 485.146C467.864 483.961 468.068 482.654 468.038 481.227L468.029 480.786L449.385 481.173L449.4 481.865C449.429 483.293 449.687 484.59 450.173 485.756C450.618 486.923 451.247 487.918 452.063 488.742C452.837 489.608 453.796 490.26 454.939 490.698C456.04 491.138 457.263 491.343 458.606 491.316ZM434.029 466.722L423.072 466.382L422.33 490.31L433.916 490.67L433.784 494.952L422.197 494.592L421.99 501.267C421.922 503.45 421.3 505.217 420.124 506.567C418.905 507.916 417.058 508.552 414.581 508.475L403.687 508.137L403.82 503.855L416.855 504.259L417.16 494.436L404.125 494.032L404.258 489.75L417.292 490.154L418.035 466.226L406.448 465.866L406.581 461.584L434.162 462.44L434.029 466.722ZM382.866 459.089C385.126 459.28 387.143 459.85 388.918 460.801C390.65 461.748 392.104 463.008 393.277 464.582C394.406 466.195 395.218 468.055 395.715 470.162C396.208 472.311 396.345 474.683 396.126 477.278C395.911 479.831 395.38 482.125 394.534 484.161C393.688 486.197 392.576 487.895 391.196 489.254C389.772 490.651 388.126 491.671 386.26 492.315C384.351 492.955 382.267 493.179 380.007 492.989C377.747 492.798 375.751 492.229 374.018 491.282C372.244 490.332 370.792 489.05 369.664 487.438C368.49 485.863 367.657 484.002 367.163 481.853C366.67 479.704 366.531 477.353 366.747 474.8C366.966 472.205 367.498 469.889 368.344 467.853C369.187 465.859 370.32 464.163 371.745 462.766C373.124 461.407 374.768 460.408 376.676 459.768C378.543 459.125 380.606 458.898 382.866 459.089ZM382.501 463.421C379.697 463.184 377.366 463.83 375.509 465.36C373.652 466.889 372.575 469.412 372.279 472.927L371.887 477.573C371.59 481.088 372.229 483.755 373.804 485.574C375.379 487.393 377.568 488.42 380.372 488.657C383.176 488.893 385.507 488.247 387.364 486.718C389.221 485.188 390.298 482.666 390.594 479.15L390.986 474.505C391.283 470.989 390.644 468.322 389.069 466.503C387.494 464.685 385.305 463.657 382.501 463.421ZM358.599 461.823L349.179 460.499L345.846 484.206L355.267 485.53L354.67 489.773L340.259 487.747L341.399 479.637L341.087 479.593C340.065 482.036 338.54 483.836 336.511 484.993C334.435 486.186 331.962 486.581 329.092 486.177L324.6 485.546L325.302 480.555L331.353 481.405C334.223 481.809 336.669 481.304 338.691 479.892C340.672 478.474 341.852 476.413 342.232 473.71L344.188 459.798L331.71 458.044L332.307 453.801L359.195 457.581L358.599 461.823ZM323.262 452.328L316.852 484.198L312.282 483.279L313.027 479.573L312.78 479.523C312.038 480.659 311.126 481.568 310.047 482.251C308.967 482.933 307.542 483.097 305.771 482.741C303.918 482.368 302.634 481.617 301.919 480.488C301.195 479.4 300.879 478.094 300.972 476.57L300.786 476.533C299.92 477.858 298.856 478.887 297.595 479.618C296.334 480.35 294.757 480.525 292.863 480.145C290.269 479.623 288.721 478.369 288.221 476.384C287.68 474.39 287.748 471.705 288.427 468.328L292.874 446.217L297.445 447.136L293.159 468.444C292.613 471.162 292.524 473.093 292.894 474.239C293.214 475.417 294.115 476.155 295.597 476.453C296.915 476.718 298.072 476.501 299.07 475.802C300.059 475.144 300.727 473.951 301.075 472.221L305.783 448.813L310.353 449.732L306.068 471.04C305.521 473.758 305.433 475.689 305.802 476.835C306.122 478.013 307.003 478.747 308.444 479.037C309.762 479.302 310.94 479.089 311.978 478.398C312.967 477.74 313.636 476.547 313.984 474.817L318.691 451.409L323.262 452.328ZM247.109 438.208L238.121 435.09L230.276 457.708L239.264 460.826L237.86 464.873L224.111 460.104L226.794 452.367L226.497 452.263C225.022 454.464 223.178 455.936 220.964 456.679C218.697 457.449 216.194 457.359 213.456 456.409L209.171 454.923L210.822 450.161L216.596 452.163C219.334 453.113 221.831 453.09 224.088 452.095C226.305 451.086 227.861 449.291 228.756 446.712L233.359 433.439L221.455 429.31L222.859 425.262L248.513 434.16L247.109 438.208ZM199.916 414.812C202.067 415.763 203.846 416.985 205.252 418.479C206.619 419.956 207.62 421.639 208.255 423.527C208.835 425.436 209.035 427.476 208.856 429.647C208.66 431.856 208.044 434.133 207.008 436.476C205.955 438.858 204.677 440.864 203.175 442.496C201.635 444.111 199.972 445.328 198.187 446.146C196.384 447.002 194.496 447.43 192.522 447.43C190.509 447.413 188.484 446.954 186.449 446.054C184.451 445.171 182.807 444.008 181.516 442.565C180.187 441.105 179.235 439.467 178.66 437.651C178.068 435.874 177.855 433.966 178.022 431.928C178.188 429.889 178.739 427.813 179.673 425.7L180.641 423.511L202.652 433.241L203.263 431.859C203.84 430.552 204.164 429.249 204.234 427.948C204.304 426.647 204.133 425.424 203.721 424.278C203.271 423.114 202.591 422.056 201.681 421.102C200.715 420.17 199.541 419.399 198.158 418.787C196.161 417.904 194.228 417.601 192.361 417.878C190.494 418.154 188.819 418.929 187.338 420.203L184.957 416.395C186.724 414.789 188.933 413.791 191.585 413.402C194.181 413.034 196.958 413.504 199.916 414.812ZM188.13 442.251C189.397 442.811 190.671 443.099 191.95 443.113C193.23 443.128 194.451 442.91 195.614 442.46C196.739 441.993 197.778 441.304 198.732 440.394C199.63 439.505 200.368 438.408 200.945 437.102L201.123 436.699L184.068 429.159L183.787 429.792C183.21 431.098 182.895 432.383 182.842 433.645C182.751 434.891 182.9 436.059 183.29 437.15C183.625 438.262 184.218 439.259 185.068 440.14C185.88 441.004 186.901 441.708 188.13 442.251ZM176.216 409.26L166.675 403.863L154.888 424.7L164.978 430.408L162.869 434.136L152.779 428.429L149.491 434.242C148.416 436.143 147.044 437.417 145.374 438.065C143.668 438.693 141.737 438.396 139.58 437.176L130.094 431.811L132.203 428.082L143.554 434.502L148.392 425.948L137.041 419.527L139.151 415.799L150.502 422.219L162.288 401.382L152.198 395.674L154.307 391.946L178.325 405.531L176.216 409.26ZM135.283 377.651C137.105 379.002 138.52 380.548 139.529 382.29C140.504 384.007 141.077 385.843 141.247 387.8C141.358 389.765 141.071 391.774 140.385 393.827C139.674 395.914 138.542 398.003 136.991 400.095C135.465 402.153 133.806 403.825 132.016 405.111C130.225 406.398 128.386 407.256 126.498 407.686C124.551 408.125 122.615 408.127 120.689 407.692C118.73 407.232 116.839 406.327 115.017 404.975C113.196 403.624 111.797 402.09 110.822 400.374C109.813 398.632 109.253 396.778 109.142 394.813C108.972 392.857 109.242 390.835 109.953 388.748C110.665 386.661 111.783 384.589 113.31 382.531C114.861 380.44 116.532 378.751 118.322 377.464C120.088 376.212 121.944 375.366 123.891 374.927C125.778 374.497 127.702 374.512 129.662 374.972C131.588 375.407 133.462 376.3 135.283 377.651ZM132.694 381.142C130.434 379.466 128.111 378.789 125.728 379.113C123.344 379.437 121.101 381.015 118.999 383.849L116.222 387.593C114.12 390.427 113.261 393.032 113.643 395.407C114.025 397.782 115.347 399.808 117.607 401.484C119.867 403.16 122.189 403.837 124.573 403.513C126.957 403.19 129.2 401.611 131.301 398.777L134.079 395.033C136.18 392.199 137.04 389.595 136.658 387.219C136.275 384.844 134.954 382.818 132.694 381.142ZM113.245 366.523L106.633 359.684L89.4225 376.325L96.0351 383.164L92.9554 386.142L82.8393 375.68L88.7271 369.987L88.5081 369.76C86.1992 371.058 83.8891 371.539 81.578 371.203C79.2074 370.866 77.0149 369.656 75.0005 367.573L71.8474 364.312L75.4707 360.808L79.7185 365.201C81.733 367.285 83.9718 368.392 86.4349 368.522C88.8688 368.623 91.0671 367.724 93.0297 365.826L103.129 356.061L94.371 347.003L97.4507 344.025L116.325 363.545L113.245 366.523ZM91.7173 337.007L63.9076 353.841L61.4934 349.853L64.727 347.895L64.5966 347.68C63.2577 347.901 61.9717 347.845 60.7387 347.511C59.5057 347.177 58.4215 346.238 57.4863 344.693C56.5076 343.076 56.1922 341.622 56.5401 340.332C56.852 339.063 57.6004 337.947 58.7851 336.984L58.6872 336.823C57.1252 337.081 55.6482 336.993 54.2563 336.559C52.8645 336.125 51.6683 335.082 50.6678 333.429C49.2976 331.165 49.1746 329.178 50.2987 327.466C51.4012 325.719 53.4255 323.954 56.3717 322.17L75.6661 310.49L78.0803 314.479L59.4866 325.734C57.1152 327.17 55.6326 328.411 55.0389 329.457C54.3875 330.49 54.4532 331.653 55.2362 332.947C55.9322 334.096 56.875 334.802 58.0645 335.064C59.2181 335.348 60.5494 335.033 62.0584 334.119L82.4846 321.755L84.8988 325.743L66.3051 336.998C63.9337 338.434 62.4511 339.675 61.8574 340.721C61.206 341.754 61.2609 342.899 62.0221 344.157C62.7181 345.306 63.6717 346.03 64.883 346.328C66.0366 346.612 67.3679 346.297 68.8769 345.383L89.3031 333.019L91.7173 337.007Z" fill="#0039FF"/>
<path d="M280.516 303.627H271.405V227.921H298.954C305.968 227.921 311.319 229.837 315.007 233.669C318.694 237.502 320.538 242.852 320.538 249.722C320.538 255.868 318.947 260.785 315.766 264.472C312.584 268.16 307.957 270.293 301.883 270.872L321.189 303.627H310.994L292.555 271.305H280.516V303.627ZM298.737 263.605C302.57 263.605 305.534 262.665 307.631 260.785C309.8 258.832 310.885 256.085 310.885 252.542V246.902C310.885 243.358 309.8 240.647 307.631 238.767C305.534 236.815 302.57 235.838 298.737 235.838H280.516V263.605H298.737ZM331.017 303.627V227.921H377.655V235.838H340.127V261.327H376.354V269.245H340.127V295.709H377.655V303.627H331.017ZM390.628 303.627V227.921H438.351V235.838H399.739V261.327H435.097V269.245H399.739V303.627H390.628ZM473.016 304.928C468.389 304.928 464.412 304.061 461.086 302.325C457.76 300.518 455.012 297.951 452.843 294.625C450.673 291.298 449.083 287.213 448.07 282.368C447.058 277.524 446.552 271.992 446.552 265.774C446.552 259.628 447.058 254.132 448.07 249.288C449.083 244.371 450.673 240.249 452.843 236.923C455.012 233.597 457.76 231.066 461.086 229.331C464.412 227.523 468.389 226.619 473.016 226.619C477.644 226.619 481.621 227.523 484.947 229.331C488.273 231.066 491.021 233.597 493.19 236.923C495.36 240.249 496.95 244.371 497.963 249.288C498.975 254.132 499.481 259.628 499.481 265.774C499.481 271.992 498.975 277.524 497.963 282.368C496.95 287.213 495.36 291.298 493.19 294.625C491.021 297.951 488.273 300.518 484.947 302.325C481.621 304.061 477.644 304.928 473.016 304.928ZM473.016 297.011C476.053 297.011 478.62 296.432 480.717 295.275C482.814 294.046 484.55 292.347 485.923 290.178C487.297 288.008 488.273 285.405 488.852 282.368C489.503 279.259 489.828 275.788 489.828 271.956V259.592C489.828 255.832 489.503 252.397 488.852 249.288C488.273 246.178 487.297 243.539 485.923 241.37C484.55 239.201 482.814 237.538 480.717 236.381C478.62 235.152 476.053 234.537 473.016 234.537C469.98 234.537 467.413 235.152 465.316 236.381C463.219 237.538 461.483 239.201 460.11 241.37C458.736 243.539 457.723 246.178 457.073 249.288C456.494 252.397 456.205 255.832 456.205 259.592V271.956C456.205 275.788 456.494 279.259 457.073 282.368C457.723 285.405 458.736 288.008 460.11 290.178C461.483 292.347 463.219 294.046 465.316 295.275C467.413 296.432 469.98 297.011 473.016 297.011ZM518.962 303.627H509.851V227.921H537.4C544.414 227.921 549.765 229.837 553.453 233.669C557.14 237.502 558.984 242.852 558.984 249.722C558.984 255.868 557.393 260.785 554.212 264.472C551.03 268.16 546.403 270.293 540.329 270.872L559.635 303.627H549.439L531.001 271.305H518.962V303.627ZM537.183 263.605C541.016 263.605 543.98 262.665 546.077 260.785C548.246 258.832 549.331 256.085 549.331 252.542V246.902C549.331 243.358 548.246 240.647 546.077 238.767C543.98 236.815 541.016 235.838 537.183 235.838H518.962V263.605H537.183ZM609.051 265.665V241.695H608.183L592.239 280.633L576.296 241.695H575.428V265.665V303.627H567.076V227.921H578.79L592.131 261.327H592.782L606.123 227.921H617.403V303.627H609.051V265.665Z" fill="#0039FF"/>
</svg>
